{"title":"Nightmare On Elm Street 1-8 (PSP + Ipod touch + Zune)","uid":5663074,"size":2904697480,"categoryP":"video","categoryS":"handheld","magnet":"?xt=urn:btih:3ba856bf0a26fd41d9017123e5a94b0a1ebab624&amp;dn=Nightmare+On+Elm+Street+1-8+%28PSP+%2B+Ipod+touch+%2B+Zune%29&amp;tr=udp%3A%2F%2Ftracker.openbittorrent.com%3A80&amp;tr=udp%3A%2F%2Fopen.demonii.com%3A1337&amp;tr=udp%3A%2F%2Ftracker.coppersurfer.tk%3A6969&amp;tr=udp%3A%2F%2Fexodus.desync.com%3A6969","seeders":0,"leechers":0,"uploader":"on.off.on","files":-1,"time":1278039363,"description":"Nightmare on elm street 1-8\n &lt;a href=&quot;\nhttp://www.imdb.com/title/tt0087800/&quot; rel=&quot;nofollow&quot; target=&quot;_NEW&quot;&gt;\nhttp://www.imdb.com/title/tt0087800/&lt;/a&gt; &lt;a href=&quot;\nhttp://www.imdb.com/title/tt0089686/&quot; rel=&quot;nofollow&quot; target=&quot;_NEW&quot;&gt;\nhttp://www.imdb.com/title/tt0089686/&lt;/a&gt; &lt;a href=&quot;\nhttp://www.imdb.com/title/tt0093629/&quot; rel=&quot;nofollow&quot; target=&quot;_NEW&quot;&gt;\nhttp://www.imdb.com/title/tt0093629/&lt;/a&gt; &lt;a href=&quot;\nhttp://www.imdb.com/title/tt0095742/&quot; rel=&quot;nofollow&quot; target=&quot;_NEW&quot;&gt;\nhttp://www.imdb.com/title/tt0095742/&lt;/a&gt; &lt;a href=&quot;\nhttp://www.imdb.com/title/tt0097981/&quot; rel=&quot;nofollow&quot; target=&quot;_NEW&quot;&gt;\nhttp://www.imdb.com/title/tt0097981/&lt;/a&gt; &lt;a href=&quot;\nhttp://www.imdb.com/title/tt0101917/&quot; rel=&quot;nofollow&quot; target=&quot;_NEW&quot;&gt;\nhttp://www.imdb.com/title/tt0101917/&lt;/a&gt; &lt;a href=&quot;\nhttp://www.imdb.com/title/tt0111686/&quot; rel=&quot;nofollow&quot; target=&quot;_NEW&quot;&gt;\nhttp://www.imdb.com/title/tt0111686/&lt;/a&gt; &lt;a href=&quot;\nhttp://www.imdb.com/title/tt0329101/&quot; rel=&quot;nofollow&quot; target=&quot;_NEW&quot;&gt;\nhttp://www.imdb.com/title/tt0329101/&lt;/a&gt;\n\n\n\nSource  : &lt;a href=&quot;\nhttp://thepiratebay.se/torrent/3857501/Nightmare_on_Elm_Street_1-7_[x264_ac3_mkv]&quot; rel=&quot;nofollow&quot; target=&quot;_NEW&quot;&gt;\nhttp://thepiratebay.se/torrent/3857501/Nightmare_on_Elm_Street_1-7_[x264_ac3_mkv]&lt;/a&gt;\n\n+\n\nFreddy.Vs.Jason.2003.720p.BluRay.x264-SiNNERS\n\n+\n\n2010 Teaser 1080p trailer\n\nno subs!\n\n\n\nInfo from nightmare on elm street episode 1 :\n\nID                               : 1\nFormat                           : AVC\nFormat/Info                      : Advanced Video Codec\nFormat profile                   : &lt;a class=&quot;__cf_email__&quot; href=&quot;/cdn-cgi/l/email-protection&quot; data-cfemail=&quot;2f6d4e5c4a4346414a6f631d011e&quot;&gt;[email&amp;#160;protected]&lt;/a&gt;&lt;script cf-hash='f9e31' type=&quot;text/javascript&quot;&gt;\n/* &lt;![CDATA[ */!function(){try{var t=&quot;currentScript&quot;in document?document.currentScript:function(){for(var t=document.getElementsByTagName(&quot;script&quot;),e=t.length;e--;)if(t[e].getAttribute(&quot;cf-hash&quot;))return t[e]}();if(t&amp;&amp;t.previousSibling){var e,r,n,i,c=t.previousSibling,a=c.getAttribute(&quot;data-cfemail&quot;);if(a){for(e=&quot;&quot;,r=parseInt(a.substr(0,2),16),n=2;a.length-n;n+=2)i=parseInt(a.substr(n,2),16)^r,e+=String.fromCharCode(i);e=document.createTextNode(e),c.parentNode.replaceChild(e,c)}}}catch(u){}}();/* ]]&gt; */&lt;/script&gt;\nFormat settings, CABAC           : No\nFormat settings, ReFrames        : 3 frames\nCodec ID                         : avc1\nCodec ID/Info                    : Advanced Video Coding\nDuration                         : 1h 27mn\nBit rate mode                    : Variable\nBit rate                         : 400 Kbps\nWidth                            : 480 pixels\nHeight                           : 256 pixels\nDisplay aspect ratio             : 1.875\nFrame rate mode                  : Constant\nFrame rate                       : 25.000 fps\nColor space                      : YUV\nChroma subsampling               : 4:2:0\nBit depth                        : 8 bits\nScan type                        : Progressive\nBits/(Pixel*Frame)               : 0.130\nStream size                      : 250 MiB (75%)\nWriting library                  : x264 core 79\n\nID                               : 2\nFormat                           : AAC\nFormat/Info                      : Advanced Audio Codec\nFormat version                   : Version 4\nFormat profile                   : LC\nFormat settings, SBR             : No\nCodec ID                         : 40\nDuration                         : 1h 27mn\nBit rate mode                    : Variable\nBit rate                         : 128 Kbps\nMaximum bit rate                 : 159 Kbps\nChannel(s)                       : 2 channels\nChannel positions                : Front: L R\nSampling rate                    : 48.0 KHz\nStream size                      : 80.1 MiB (24%)\nLanguage                         : English\n\nScreens : &lt;a href=&quot;\nhttp://img15.imageshack.us/img15/6819/vlcsnap00001y.png&quot; rel=&quot;nofollow&quot; target=&quot;_NEW&quot;&gt;\nhttp://img15.imageshack.us/img15/6819/vlcsnap00001y.png&lt;/a&gt; &lt;a href=&quot;\nhttp://img641.imageshack.us/img641/1308/vlcsnap00002c.png&quot; rel=&quot;nofollow&quot; target=&quot;_NEW&quot;&gt;\nhttp://img641.imageshack.us/img641/1308/vlcsnap00002c.png&lt;/a&gt; &lt;a href=&quot;\nhttp://img341.imageshack.us/img341/5871/vlcsnap00003b.png&quot; rel=&quot;nofollow&quot; target=&quot;_NEW&quot;&gt;\nhttp://img341.imageshack.us/img341/5871/vlcsnap00003b.png&lt;/a&gt; &lt;a href=&quot;\nhttp://img180.imageshack.us/img180/5591/vlcsnap00004j.png&quot; rel=&quot;nofollow&quot; target=&quot;_NEW&quot;&gt;\nhttp://img180.imageshack.us/img180/5591/vlcsnap00004j.png&lt;/a&gt; &lt;a href=&quot;\nhttp://img6.imageshack.us/img6/9950/vlcsnap00005si.png&quot; rel=&quot;nofollow&quot; target=&quot;_NEW&quot;&gt;\nhttp://img6.imageshack.us/img6/9950/vlcsnap00005si.png&lt;/a&gt; &lt;a href=&quot;\nhttp://img337.imageshack.us/img337/3815/vlcsnap00006w.png&quot; rel=&quot;nofollow&quot; target=&quot;_NEW&quot;&gt;\nhttp://img337.imageshack.us/img337/3815/vlcsnap00006w.png&lt;/a&gt; &lt;a href=&quot;\nhttp://img132.imageshack.us/img132/7137/vlcsnap00007l.png&quot; rel=&quot;nofollow&quot; target=&quot;_NEW&quot;&gt;\nhttp://img132.imageshack.us/img132/7137/vlcsnap00007l.png&lt;/a&gt; &lt;a href=&quot;\nhttp://img576.imageshack.us/img576/8698/vlcsnap00008x.png&quot; rel=&quot;nofollow&quot; target=&quot;_NEW&quot;&gt;\nhttp://img576.imageshack.us/img576/8698/vlcsnap00008x.png&lt;/a&gt;\n\n\n\nPLEASE LET THE TORRENT SEED AND SHARE IT WITH ALL YOU KNOW!\n\nLet me know what I can do to be your trusted source of Handheld videos. &lt;a href=&quot;\nhttp://thepiratebay.se/user/on.off.on/&quot; rel=&quot;nofollow&quot; target=&quot;_NEW&quot;&gt;\nhttp://thepiratebay.se/user/on.off.on/&lt;/a&gt; -OOO","torrent":{"xt":"urn:btih:3ba856bf0a26fd41d9017123e5a94b0a1ebab624","amp;dn":"Nightmare+On+Elm+Street+1-8+%28PSP+%2B+Ipod+touch+%2B+Zune%29","amp;tr":["udp%3A%2F%2Ftracker.openbittorrent.com%3A80","udp%3A%2F%2Fopen.demonii.com%3A1337","udp%3A%2F%2Ftracker.coppersurfer.tk%3A6969","udp%3A%2F%2Fexodus.desync.com%3A6969"],"infoHash":"3ba856bf0a26fd41d9017123e5a94b0a1ebab624","infoHashBuffer":{"type":"Buffer","data":[59,168,86,191,10,38,253,65,217,1,113,35,229,169,75,10,30,186,182,36]},"announce":[],"urlList":[]}}